<svg width="541" height="542" viewBox="0 0 541 542" fill="none" xmlns="http://www.w3.org/2000/svg">
<path d="M539.43 270.97C539.43 122.38 418.97 1.91992 270.38 1.91992C121.79 1.91992 1.32971 122.38 1.32971 270.97C1.32971 419.56 121.79 540.02 270.38 540.02C418.97 540.02 539.43 419.56 539.43 270.97Z" stroke="#7A8A87" stroke-width="2"/>
<path d="M157.09 502.09C157.34 502.39 157.65 502.52 158.02 502.48C158.39 502.44 158.7 502.57 158.93 502.86C159.54 503.61 160.42 503.43 161.24 503.87C166.92 506.91 172.96 509.2 178.9 511.54C182.44 512.93 185.86 514.16 189.17 515.24C231.59 529.09 274.78 531.91 318.73 523.71C336.76 520.35 353.86 515.19 370.04 508.23C372.67 507.1 375.21 505.99 377.68 504.92C380.33 503.77 382.85 502.59 385.22 501.39C419.57 483.98 448.61 460.32 472.35 430.39C483.35 416.52 492.71 401.84 500.43 386.37C518.61 349.93 527.69 311.43 527.67 270.86C527.66 234.75 520.45 200.33 506.05 167.59C503.56 161.94 500.37 155.36 496.46 147.87C495.24 145.55 493.78 143.57 492.63 141.25C491.8 139.6 490.84 137.96 489.74 136.31C486.79 131.88 484.11 127.29 480.98 122.94C466.95 103.43 451.26 86.5499 433.92 72.3199C404.23 47.9399 370.91 31.0299 333.94 21.5799C309.55 15.3499 284.56 12.7899 258.97 13.9199C216.54 15.7799 176.83 27.5399 139.82 49.2099C122.69 59.2399 106.94 71.1899 92.5697 85.0599C90.8297 86.7499 88.8897 88.1499 87.2497 90.0099C86.0997 91.3399 84.8897 92.6599 83.6297 93.9699C79.8197 97.9599 76.1297 102.1 72.5597 106.39C50.1997 133.3 33.9797 163.47 23.8997 196.92C17.8697 216.89 14.3697 237.3 13.3897 258.15C11.7197 293.59 16.9697 327.82 29.1297 360.83C31.2197 366.49 33.5997 372.09 36.2697 377.62C37.0497 379.24 37.5397 380.94 38.3297 382.55C49.1297 404.52 62.5697 424.54 78.6497 442.6C80.8597 445.08 83.4697 447.79 86.4797 450.74C87.3697 451.61 87.8097 452.71 88.8197 453.44C89.4897 453.92 90.1097 454.45 90.6997 455.02C109.43 473.46 130.53 488.62 154 500.51C154.74 500.88 155.49 501.21 156.25 501.5C156.58 501.62 156.86 501.82 157.09 502.09Z" stroke="#7A8A87" stroke-width="2"/>
<path d="M218.24 170.04C233.66 179.62 246.16 192.34 255.74 208.2C257.04 210.35 258.38 212.99 259.77 216.12C260.01 216.67 259.82 217.32 259.32 217.65L255.64 220.07C255.26 220.32 255.26 220.58 255.63 220.84C257.35 222.06 258.65 223.48 259.52 225.1C259.66 225.37 259.82 225.39 260.01 225.14C261.07 223.75 262.28 222.59 263.64 221.68C268.57 218.37 273.82 215.96 279.38 214.46C279.73 214.36 279.82 214.15 279.67 213.82C278.25 210.71 276.59 208.02 274.68 205.75C272.72 203.41 270.84 200.99 268.72 198.76C245.87 174.82 218.7 155.18 189.33 139.99C183.4 136.93 177.94 134.47 172.93 132.61C168.68 131.04 164 129.61 158.91 128.34C157.37 127.96 155.87 128.19 154.47 127.71C153.58 127.4 153.24 127.7 153.45 128.62C154.3 132.21 155.84 135.53 158.08 138.6C159.2 140.13 160.43 141.68 161.77 143.26C164.25 146.18 167.43 148.69 170.41 151.13C177.69 157.1 185.72 161.2 194.51 163.44C194.62 163.47 194.67 163.54 194.65 163.65L194.64 163.66C194.63 163.75 194.58 163.79 194.49 163.78C188.24 163.12 182.21 161.52 176.4 158.97C173.36 157.64 170.57 155.72 167.79 153.83C167.23 153.45 167.09 153.57 167.37 154.19C168.68 157.1 170.56 159.23 173 160.58C193.43 171.91 211.3 182.88 228.04 195.69C229.5 196.81 231.09 197.56 232.81 197.94C237.12 198.9 241.39 199.79 245.6 200.61C245.95 200.68 245.98 200.61 245.69 200.4C242.77 198.26 239.64 196.1 236.31 193.91C228.26 188.65 220.38 183.59 212.68 178.74C212.61 178.69 212.57 178.63 212.58 178.54C212.58 178.5 212.6 178.49 212.64 178.5C215.26 179.61 218.06 180.83 221.03 182.14C225.61 184.17 231 187.02 237.21 190.69C237.29 190.74 237.35 190.72 237.38 190.63C237.39 190.6 237.4 190.57 237.4 190.54C237.41 190.44 237.38 190.36 237.31 190.29C230.85 183.64 224.87 176.6 218.13 170.18C217.72 169.79 217.75 169.74 218.24 170.04Z" stroke="#7A8A87" stroke-width="2"/>
<path d="M183.54 186.57C182.72 185.72 182.82 185.59 183.85 186.16C204.62 197.66 221.39 213.61 234.17 234.02C234.64 234.78 234.36 235.77 233.56 236.17C232.67 236.62 231.86 237.16 231.13 237.79C230.37 238.45 229.58 239.06 228.77 239.62C218.21 246.91 205.91 251.37 191.86 252.99C190.08 253.2 190.08 253.44 191.85 253.73C194.45 254.15 196.81 255.14 199.44 255.62C215.57 258.59 231.2 256.88 246.33 250.47C246.38 250.45 246.43 250.51 246.39 250.56C245.38 251.72 244.34 252.7 243.29 253.51C237.98 257.57 229.75 259.59 222.92 261.43C221.38 261.84 219.84 262.79 218.6 263.75C208.71 271.43 200.1 281.12 192.75 292.83C187.75 300.8 182.97 309.36 178.4 318.51C178.28 318.76 178.11 318.96 177.88 319.11C177.57 319.32 177.45 319.59 177.5 319.93C177.57 320.36 177.42 320.69 177.05 320.92C176.56 321.22 176.37 321.66 176.49 322.23C176.55 322.55 176.43 322.77 176.13 322.89C175.74 323.04 175.54 323.33 175.53 323.75C175.53 324.12 175.45 324.46 175.28 324.79L167.54 340.5C167.47 340.63 167.44 340.78 167.44 340.93C167.44 341.19 167.39 341.44 167.28 341.67C163.9 349.2 160.45 357.04 156.94 365.19C155.11 369.42 153.23 373.62 151.29 377.78C145.02 391.2 137.68 403 129.27 413.17C128.97 413.54 129.25 414.09 129.73 414.05C133.87 413.69 137.8 412.06 141.53 409.17C147.57 404.48 153.62 399.08 158.42 393.05C159.99 391.07 161.68 389.03 163.49 386.92C165.94 384.07 168.36 380.92 170.77 377.45C176.59 369.06 181.87 360.42 186.62 351.55C186.77 351.26 186.97 351 187.21 350.77C187.52 350.49 187.62 350.14 187.51 349.72C187.44 349.47 187.58 349.2 187.83 349.12C188.43 348.92 188.65 348.52 188.48 347.91C188.39 347.57 188.5 347.33 188.82 347.18C189.4 346.92 189.63 346.47 189.5 345.84C189.43 345.47 189.56 345.22 189.91 345.08C190.42 344.88 190.61 344.51 190.48 343.97C190.4 343.61 190.52 343.33 190.83 343.14C191.2 342.91 191.49 342.59 191.68 342.2C194.99 335.53 198.22 329.05 201.39 322.74C201.54 322.43 201.55 322.14 201.53 321.8C201.51 321.47 201.65 321.24 201.94 321.09C202.41 320.86 202.59 320.49 202.48 319.98C202.4 319.61 202.53 319.33 202.86 319.14C203.37 318.87 203.58 318.45 203.51 317.87C203.46 317.5 203.61 317.23 203.95 317.06C204.28 316.9 204.45 316.63 204.47 316.25C204.48 315.97 204.56 315.71 204.71 315.47C206.74 312.12 208.61 308.54 210.31 304.73C210.44 304.43 210.66 304.25 210.96 304.2C211.52 304.09 211.69 304.31 211.48 304.84C211.19 305.6 210.97 306.37 210.82 307.14C209.01 316.94 207.96 326.32 207.68 335.27C207.56 338.99 207.79 342.44 209.24 345.95C209.42 346.39 209.57 346.38 209.7 345.92C210.55 342.72 211.5 339.7 212.57 336.87C213.48 334.46 214.68 331.89 216.18 329.14C217.02 327.59 218.42 326.77 219.43 325.33C219.46 325.29 219.49 325.28 219.54 325.31L219.78 325.47C219.95 325.58 219.98 325.73 219.87 325.9C217.78 329.41 216.17 333.18 215.03 337.21C214.14 340.34 214.52 343.66 215.08 346.83C215.56 349.51 216.17 349.54 216.91 346.91C217.31 345.49 217.66 344.05 218.38 342.77C219.16 341.39 219.83 339.98 220.39 338.53C220.45 338.37 220.56 338.32 220.73 338.39L220.97 338.49C221.02 338.5 221.03 338.53 221.01 338.58C219.39 342.57 218.49 346.45 218.3 350.24C218.21 352.04 218.67 352.19 219.68 350.7L220.32 349.74C220.47 349.52 220.53 349.24 220.49 348.97C220.42 348.51 220.59 348.19 221.01 348C221.37 347.83 221.52 347.55 221.47 347.16C221.39 346.66 221.57 346.28 222 346.01C222.32 345.81 222.55 345.53 222.68 345.18C223.07 344.21 223.51 343.34 224 342.55C231.89 329.98 243.77 321.03 257.48 315.44C265.93 311.99 275.23 309.58 283.42 305.59C293.69 300.59 302.28 292.82 309.2 282.28C314.59 274.07 318.06 263.4 318.95 253.5C319.22 250.49 319.39 247.53 319.46 244.64C319.57 239.88 325.89 237.41 329.22 235.28C331.57 233.77 334.72 230.78 338.67 226.31C340.35 224.4 341.98 222.38 343.56 220.24C345.03 218.25 346.77 216.5 348.76 215C351.29 213.09 353.45 211.75 355.24 210.96C360.13 208.79 365.63 207.05 371.74 205.72C383.56 203.15 395.38 201.17 407.2 199.79C414.67 198.92 426.3 197.73 442.09 196.22C442.15 196.21 442.18 196.18 442.18 196.11L442.16 195.84C442.15 195.58 442.01 195.45 441.75 195.45C422.21 195.68 402.69 196.54 383.19 198.01C381.11 198.17 379.15 198.34 377.32 198.51C365.93 199.59 355.1 199.09 344.84 193.69C344.09 193.3 343.86 192.55 342.99 192.46C342.78 192.44 342.58 192.36 342.41 192.24C340.92 191.17 339.2 190.25 337.24 189.46C332.05 187.37 327.28 186.25 322.92 186.09C313.35 185.74 305.42 190.51 299.18 197.93C298.07 199.25 297.35 200.83 296.41 202.25C295.72 203.27 295.15 204.28 294.68 205.27C292.26 210.39 289.05 215.34 284.2 217.9C281.75 219.2 278.88 220.35 275.59 221.34C272.62 222.24 269.66 223.72 266.73 225.79C263.09 228.37 261.28 232.22 260.57 236.54C260.53 236.77 260.32 236.92 260.09 236.89L259.76 236.83C259.52 236.8 259.35 236.59 259.35 236.35C259.36 233.9 258.62 231.65 257.11 229.58C254.08 225.43 250.61 221.56 246.68 217.99C237.69 209.8 228.62 202.3 219.47 195.5C205.5 185.13 190.37 175.43 174.09 166.42C171.73 165.11 169.29 163.85 166.78 162.62C166.45 162.46 166.17 162.24 165.93 161.97C165.64 161.64 165.28 161.48 164.85 161.5C164.46 161.52 164.17 161.35 163.98 160.99C163.75 160.54 163.38 160.35 162.87 160.44C162.62 160.49 162.4 160.41 162.23 160.22C161.94 159.92 161.85 159.74 161.47 159.53C156.23 156.59 150.61 154.5 145.27 151.89C134.09 146.43 122.93 142.33 111.79 139.59C110.34 139.24 107.23 138.9 102.48 138.59C102.05 138.56 101.88 138.76 101.95 139.18C102.47 142.07 103.59 144.81 105.31 147.41C108.63 152.42 112.51 156.77 116.95 160.47C118.06 161.39 119.14 162.32 120.21 163.26C121.24 164.17 122.35 165.05 123.56 165.92C131.37 171.53 140.62 175.97 151.3 179.23C152.43 179.58 152.41 179.69 151.23 179.58C140.19 178.54 129.59 175.13 119.44 169.36C119.06 169.15 118.98 169.23 119.19 169.6C122.66 175.74 127.24 180.56 132.37 185.34C133.82 186.69 135.71 187.27 136.82 188.91C137.02 189.2 137.28 189.41 137.61 189.54C139.34 190.19 140.87 191.09 142.22 192.24C143.15 193.03 144.22 193.47 145.43 193.56C145.6 193.57 145.73 193.65 145.82 193.8L146.06 194.2C146.28 194.56 146.59 194.67 146.98 194.52C147.35 194.38 147.63 194.48 147.82 194.83C148.02 195.22 148.34 195.44 148.77 195.5C149.4 195.58 150.14 195.84 150.99 196.27C152.37 196.97 155.12 197.77 159.24 198.67C159.25 198.67 159.25 198.67 159.25 198.68L159.21 198.94C159.18 199.11 159.09 199.18 158.92 199.17C156.16 199.01 153.43 198.69 150.72 198.2C145.32 197.22 140.12 196.42 134.9 195.24C133.53 194.93 133.35 195.27 134.35 196.26C136.16 198.05 137.93 199.87 139.64 201.72C140.71 202.87 141.85 203.81 143.08 204.54C144.27 205.24 145.28 206.12 146.12 207.17C146.41 207.55 146.8 207.8 147.27 207.91C148.1 208.1 148.73 208.56 149.16 209.29C149.34 209.58 149.59 209.67 149.91 209.55C150.35 209.38 150.69 209.52 150.93 209.97C151.05 210.18 151.23 210.36 151.45 210.47C153.78 211.65 155.98 212.88 158.48 213.68C160.69 214.39 162.84 215.09 164.92 215.77C165.1 215.82 165.21 215.94 165.24 216.12C165.33 216.51 165.2 216.61 164.85 216.4C163.47 215.57 161.7 216.08 160.06 215.86C158.02 215.59 155.97 215.21 153.91 214.71C153.43 214.59 153.32 214.74 153.57 215.16C156.71 220.31 161.81 226.43 167.51 228.5C167.76 228.59 167.95 228.8 168.02 229.06C168.13 229.47 168.37 229.63 168.74 229.54C169.07 229.45 169.4 229.48 169.71 229.63C172.21 230.82 174.94 231.58 177.62 232.16C177.85 232.21 178.01 232.43 177.98 232.66C177.95 232.9 177.75 233.07 177.51 233.06L168.71 232.74C168.26 232.72 167.97 233.22 168.22 233.6C169.97 236.29 171.93 238.81 174.11 241.15C175.15 242.26 176.52 242.56 177.6 243.64C178.25 244.29 179.05 244.85 179.98 245.3C190.73 250.56 201.22 248.2 210.92 241.86C213.67 240.06 216.56 238.05 219.59 235.84C220.49 235.18 220.38 234.89 219.27 234.96C210.78 235.52 202.55 235.38 194.58 234.54C193.73 234.45 193.05 234.83 192.24 234.68C191.67 234.57 191.66 234.45 192.23 234.32C195.1 233.65 198.16 233.08 201.4 232.6C208.02 231.61 214.39 230.11 220.86 228.8C222.89 228.39 222.9 227.93 220.9 227.42C211.27 224.95 201.6 222.18 191.89 219.1C189.43 218.31 186.96 217.42 184.49 216.42C183.39 215.98 183.43 215.8 184.61 215.88C194.88 216.56 205.22 217.56 215.65 218.89C217.24 219.09 217.36 218.76 216 217.91C207.43 212.56 198.86 207.55 190.29 202.9C186.28 200.72 182.61 198.19 178.32 196.53C178.27 196.51 178.26 196.48 178.29 196.44L178.53 196.17C178.6 196.08 178.7 196.06 178.81 196.09C188.18 198.99 197.34 202.76 206.28 207.4C207.91 208.25 208.03 208.07 206.64 206.87C200.11 201.24 193.02 195.05 185.37 188.32C184.73 187.75 184.12 187.17 183.54 186.57Z" stroke="#7A8A87" stroke-width="2"/>
<path d="M202.6 332.77C199.45 337.71 196.63 342.95 193.61 348.02C190.11 353.91 185.99 359.31 182.28 364.86C177.76 371.63 172.64 377.79 167.56 384.2C165.1 387.3 162.36 390.43 159.34 393.59C156.37 396.69 153.55 399.77 150.89 402.82C150.54 403.22 150.62 403.33 151.11 403.15C152.62 402.6 153.4 401.45 154.75 400.66C155.54 400.19 156.29 399.63 157 398.98C172.39 384.97 185.25 368.91 195.58 350.81C198.93 344.94 201.45 339.01 203.16 333.02C203.55 331.65 203.37 331.57 202.6 332.77Z" stroke="#7A8A87" stroke-width="2"/>
<path d="M328.183 208.593C330.46 209.15 332.78 207.66 333.359 205.264C333.94 202.87 332.57 200.48 330.296 199.927C328.02 199.37 325.7 200.86 325.12 203.256C324.54 205.65 325.91 208.04 328.183 208.593Z" stroke="#7A8A87" stroke-width="2"/>
<path d="M305.17 267.45C304 270.07 302.49 272.68 300.63 275.27C294.39 283.99 285.57 291.67 276.82 297.57C271.07 301.44 264.59 305.48 257.4 309.68C254.72 311.25 254.86 311.56 257.82 310.63C270.85 306.51 283 301.25 292.76 291.45C299.73 284.46 304.39 275.96 306.75 265.96C306.94 265.16 307.48 264.32 307.56 263.63C307.63 262.98 307.5 262.94 307.17 263.51C306.44 264.78 305.78 266.1 305.17 267.45Z" stroke="#7A8A87" stroke-width="2"/>
<path d="M539.43 270.97C539.43 419.56 418.97 540.02 270.38 540.02C121.79 540.02 1.33008 419.56 1.33008 270.97C1.33008 122.38 121.79 1.91992 270.38 1.91992C418.97 1.91992 539.43 122.38 539.43 270.97ZM157.09 502.09C157.34 502.39 157.65 502.52 158.02 502.48C158.39 502.44 158.7 502.57 158.93 502.86C159.54 503.61 160.42 503.43 161.24 503.87C166.92 506.91 172.96 509.2 178.9 511.54C182.44 512.93 185.86 514.16 189.17 515.24C231.59 529.09 274.78 531.91 318.73 523.71C336.76 520.35 353.86 515.19 370.04 508.23C372.67 507.1 375.21 505.99 377.68 504.92C380.33 503.77 382.85 502.59 385.22 501.39C419.57 483.98 448.61 460.32 472.35 430.39C483.35 416.52 492.71 401.84 500.43 386.37C518.61 349.93 527.69 311.43 527.67 270.86C527.66 234.75 520.45 200.33 506.05 167.59C503.56 161.94 500.37 155.36 496.46 147.87C495.24 145.55 493.78 143.57 492.63 141.25C491.8 139.6 490.84 137.96 489.74 136.31C486.79 131.88 484.11 127.29 480.98 122.94C466.95 103.43 451.26 86.5499 433.92 72.3199C404.23 47.9399 370.91 31.0299 333.94 21.5799C309.55 15.3499 284.56 12.7899 258.97 13.9199C216.54 15.7799 176.83 27.5399 139.82 49.2099C122.69 59.2399 106.94 71.1899 92.5701 85.0599C90.8301 86.7499 88.8901 88.1499 87.2501 90.0099C86.1001 91.3399 84.8901 92.6599 83.6301 93.9699C79.8201 97.9599 76.1301 102.1 72.5601 106.39C50.2001 133.3 33.9801 163.47 23.9001 196.92C17.8701 216.89 14.3701 237.3 13.3901 258.15C11.7201 293.59 16.9701 327.82 29.1301 360.83C31.2201 366.49 33.6001 372.09 36.2701 377.62C37.0501 379.24 37.5401 380.94 38.3301 382.55C49.1301 404.52 62.5701 424.54 78.6501 442.6C80.8601 445.08 83.4701 447.79 86.4801 450.74C87.3701 451.61 87.8101 452.71 88.8201 453.44C89.4901 453.92 90.1101 454.45 90.7001 455.02C109.43 473.46 130.53 488.62 154 500.51C154.74 500.88 155.49 501.21 156.25 501.5C156.58 501.62 156.86 501.82 157.09 502.09Z" fill="#DBDBDB"/>
<path d="M156.25 501.5C155.49 501.21 154.74 500.88 154 500.51C130.53 488.62 109.43 473.46 90.7002 455.02C90.1102 454.45 89.4902 453.92 88.8202 453.44C87.8102 452.71 87.3702 451.61 86.4802 450.74C83.4702 447.79 80.8602 445.08 78.6502 442.6C62.5702 424.54 49.1301 404.52 38.3301 382.55C37.5401 380.94 37.0501 379.24 36.2701 377.62C33.6001 372.09 31.2202 366.49 29.1302 360.83C16.9702 327.82 11.7202 293.59 13.3902 258.15C14.3702 237.3 17.8702 216.89 23.9002 196.92C33.9802 163.47 50.2002 133.3 72.5602 106.39C76.1302 102.1 79.8202 97.96 83.6302 93.97C84.8902 92.66 86.1002 91.34 87.2502 90.01C88.8902 88.15 90.8302 86.75 92.5702 85.06C106.94 71.19 122.69 59.24 139.82 49.21C176.83 27.54 216.54 15.78 258.97 13.92C284.56 12.79 309.55 15.35 333.94 21.58C370.91 31.03 404.23 47.94 433.92 72.32C451.26 86.55 466.95 103.43 480.98 122.94C484.11 127.29 486.79 131.88 489.74 136.31C490.84 137.96 491.8 139.6 492.63 141.25C493.78 143.57 495.24 145.55 496.46 147.87C500.37 155.36 503.56 161.94 506.05 167.59C520.45 200.33 527.66 234.75 527.67 270.86C527.69 311.43 518.61 349.93 500.43 386.37C492.71 401.84 483.35 416.52 472.35 430.39C448.61 460.32 419.57 483.98 385.22 501.39C382.85 502.59 380.33 503.77 377.68 504.92C375.21 505.99 372.67 507.1 370.04 508.23C353.86 515.19 336.76 520.35 318.73 523.71C274.78 531.91 231.59 529.09 189.17 515.24C185.86 514.16 182.44 512.93 178.9 511.54C172.96 509.2 166.92 506.91 161.24 503.87C160.42 503.43 159.54 503.61 158.93 502.86C158.7 502.57 158.39 502.44 158.02 502.48C157.65 502.52 157.34 502.39 157.09 502.09C156.86 501.82 156.58 501.62 156.25 501.5ZM218.24 170.04C233.66 179.62 246.16 192.34 255.74 208.2C257.04 210.35 258.38 212.99 259.77 216.12C260.01 216.67 259.82 217.32 259.32 217.65L255.64 220.07C255.26 220.32 255.26 220.58 255.63 220.84C257.35 222.06 258.65 223.48 259.52 225.1C259.66 225.37 259.82 225.39 260.01 225.14C261.07 223.75 262.28 222.59 263.64 221.68C268.57 218.37 273.82 215.96 279.38 214.46C279.73 214.36 279.82 214.15 279.67 213.82C278.25 210.71 276.59 208.02 274.68 205.75C272.72 203.41 270.84 200.99 268.72 198.76C245.87 174.82 218.7 155.18 189.33 139.99C183.4 136.93 177.94 134.47 172.93 132.61C168.68 131.04 164 129.61 158.91 128.34C157.37 127.96 155.87 128.19 154.47 127.71C153.58 127.4 153.24 127.7 153.45 128.62C154.3 132.21 155.84 135.53 158.08 138.6C159.2 140.13 160.43 141.68 161.77 143.26C164.25 146.18 167.43 148.69 170.41 151.13C177.69 157.1 185.72 161.2 194.51 163.44C194.62 163.47 194.67 163.54 194.65 163.65L194.64 163.66C194.63 163.75 194.58 163.79 194.49 163.78C188.24 163.12 182.21 161.52 176.4 158.97C173.36 157.64 170.57 155.72 167.79 153.83C167.23 153.45 167.09 153.57 167.37 154.19C168.68 157.1 170.56 159.23 173 160.58C193.43 171.91 211.3 182.88 228.04 195.69C229.5 196.81 231.09 197.56 232.81 197.94C237.12 198.9 241.39 199.79 245.6 200.61C245.95 200.68 245.98 200.61 245.69 200.4C242.77 198.26 239.64 196.1 236.31 193.91C228.26 188.65 220.38 183.59 212.68 178.74C212.61 178.69 212.57 178.63 212.58 178.54C212.58 178.5 212.6 178.49 212.64 178.5C215.26 179.61 218.06 180.83 221.03 182.14C225.61 184.17 231 187.02 237.21 190.69C237.29 190.74 237.35 190.72 237.38 190.63C237.39 190.6 237.4 190.57 237.4 190.54C237.41 190.44 237.38 190.36 237.31 190.29C230.85 183.64 224.87 176.6 218.13 170.18C217.72 169.79 217.75 169.74 218.24 170.04ZM183.54 186.57C182.72 185.72 182.82 185.59 183.85 186.16C204.62 197.66 221.39 213.61 234.17 234.02C234.64 234.78 234.36 235.77 233.56 236.17C232.67 236.62 231.86 237.16 231.13 237.79C230.37 238.45 229.58 239.06 228.77 239.62C218.21 246.91 205.91 251.37 191.86 252.99C190.08 253.2 190.08 253.44 191.85 253.73C194.45 254.15 196.81 255.14 199.44 255.62C215.57 258.59 231.2 256.88 246.33 250.47C246.38 250.45 246.43 250.51 246.39 250.56C245.38 251.72 244.34 252.7 243.29 253.51C237.98 257.57 229.75 259.59 222.92 261.43C221.38 261.84 219.84 262.79 218.6 263.75C208.71 271.43 200.1 281.12 192.75 292.83C187.75 300.8 182.97 309.36 178.4 318.51C178.28 318.76 178.11 318.96 177.88 319.11C177.57 319.32 177.45 319.59 177.5 319.93C177.57 320.36 177.42 320.69 177.05 320.92C176.56 321.22 176.37 321.66 176.49 322.23C176.55 322.55 176.43 322.77 176.13 322.89C175.74 323.04 175.54 323.33 175.53 323.75C175.53 324.12 175.45 324.46 175.28 324.79L167.54 340.5C167.47 340.63 167.44 340.78 167.44 340.93C167.44 341.19 167.39 341.44 167.28 341.67C163.9 349.2 160.45 357.04 156.94 365.19C155.11 369.42 153.23 373.62 151.29 377.78C145.02 391.2 137.68 403 129.27 413.17C128.97 413.54 129.25 414.09 129.73 414.05C133.87 413.69 137.8 412.06 141.53 409.17C147.57 404.48 153.62 399.08 158.42 393.05C159.99 391.07 161.68 389.03 163.49 386.92C165.94 384.07 168.36 380.92 170.77 377.45C176.59 369.06 181.87 360.42 186.62 351.55C186.77 351.26 186.97 351 187.21 350.77C187.52 350.49 187.62 350.14 187.51 349.72C187.44 349.47 187.58 349.2 187.83 349.12C188.43 348.92 188.65 348.52 188.48 347.91C188.39 347.57 188.5 347.33 188.82 347.18C189.4 346.92 189.63 346.47 189.5 345.84C189.43 345.47 189.56 345.22 189.91 345.08C190.42 344.88 190.61 344.51 190.48 343.97C190.4 343.61 190.52 343.33 190.83 343.14C191.2 342.91 191.49 342.59 191.68 342.2C194.99 335.53 198.22 329.05 201.39 322.74C201.54 322.43 201.55 322.14 201.53 321.8C201.51 321.47 201.65 321.24 201.94 321.09C202.41 320.86 202.59 320.49 202.48 319.98C202.4 319.61 202.53 319.33 202.86 319.14C203.37 318.87 203.58 318.45 203.51 317.87C203.46 317.5 203.61 317.23 203.95 317.06C204.28 316.9 204.45 316.63 204.47 316.25C204.48 315.97 204.56 315.71 204.71 315.47C206.74 312.12 208.61 308.54 210.31 304.73C210.44 304.43 210.66 304.25 210.96 304.2C211.52 304.09 211.69 304.31 211.48 304.84C211.19 305.6 210.97 306.37 210.82 307.14C209.01 316.94 207.96 326.32 207.68 335.27C207.56 338.99 207.79 342.44 209.24 345.95C209.42 346.39 209.57 346.38 209.7 345.92C210.55 342.72 211.5 339.7 212.57 336.87C213.48 334.46 214.68 331.89 216.18 329.14C217.02 327.59 218.42 326.77 219.43 325.33C219.46 325.29 219.49 325.28 219.54 325.31L219.78 325.47C219.95 325.58 219.98 325.73 219.87 325.9C217.78 329.41 216.17 333.18 215.03 337.21C214.14 340.34 214.52 343.66 215.08 346.83C215.56 349.51 216.17 349.54 216.91 346.91C217.31 345.49 217.66 344.05 218.38 342.77C219.16 341.39 219.83 339.98 220.39 338.53C220.45 338.37 220.56 338.32 220.73 338.39L220.97 338.49C221.02 338.5 221.03 338.53 221.01 338.58C219.39 342.57 218.49 346.45 218.3 350.24C218.21 352.04 218.67 352.19 219.68 350.7L220.32 349.74C220.47 349.52 220.53 349.24 220.49 348.97C220.42 348.51 220.59 348.19 221.01 348C221.37 347.83 221.52 347.55 221.47 347.16C221.39 346.66 221.57 346.28 222 346.01C222.32 345.81 222.55 345.53 222.68 345.18C223.07 344.21 223.51 343.34 224 342.55C231.89 329.98 243.77 321.03 257.48 315.44C265.93 311.99 275.23 309.58 283.42 305.59C293.69 300.59 302.28 292.82 309.2 282.28C314.59 274.07 318.06 263.4 318.95 253.5C319.22 250.49 319.39 247.53 319.46 244.64C319.57 239.88 325.89 237.41 329.22 235.28C331.57 233.77 334.72 230.78 338.67 226.31C340.35 224.4 341.98 222.38 343.56 220.24C345.03 218.25 346.77 216.5 348.76 215C351.29 213.09 353.45 211.75 355.24 210.96C360.13 208.79 365.63 207.05 371.74 205.72C383.56 203.15 395.38 201.17 407.2 199.79C414.67 198.92 426.3 197.73 442.09 196.22C442.15 196.21 442.18 196.18 442.18 196.11L442.16 195.84C442.15 195.58 442.01 195.45 441.75 195.45C422.21 195.68 402.69 196.54 383.19 198.01C381.11 198.17 379.15 198.34 377.32 198.51C365.93 199.59 355.1 199.09 344.84 193.69C344.09 193.3 343.86 192.55 342.99 192.46C342.78 192.44 342.58 192.36 342.41 192.24C340.92 191.17 339.2 190.25 337.24 189.46C332.05 187.37 327.28 186.25 322.92 186.09C313.35 185.74 305.42 190.51 299.18 197.93C298.07 199.25 297.35 200.83 296.41 202.25C295.72 203.27 295.15 204.28 294.68 205.27C292.26 210.39 289.05 215.34 284.2 217.9C281.75 219.2 278.88 220.35 275.59 221.34C272.62 222.24 269.66 223.72 266.73 225.79C263.09 228.37 261.28 232.22 260.57 236.54C260.53 236.77 260.32 236.92 260.09 236.89L259.76 236.83C259.52 236.8 259.35 236.59 259.35 236.35C259.36 233.9 258.62 231.65 257.11 229.58C254.08 225.43 250.61 221.56 246.68 217.99C237.69 209.8 228.62 202.3 219.47 195.5C205.5 185.13 190.37 175.43 174.09 166.42C171.73 165.11 169.29 163.85 166.78 162.62C166.45 162.46 166.17 162.24 165.93 161.97C165.64 161.64 165.28 161.48 164.85 161.5C164.46 161.52 164.17 161.35 163.98 160.99C163.75 160.54 163.38 160.35 162.87 160.44C162.62 160.49 162.4 160.41 162.23 160.22C161.94 159.92 161.85 159.74 161.47 159.53C156.23 156.59 150.61 154.5 145.27 151.89C134.09 146.43 122.93 142.33 111.79 139.59C110.34 139.24 107.23 138.9 102.48 138.59C102.05 138.56 101.88 138.76 101.95 139.18C102.47 142.07 103.59 144.81 105.31 147.41C108.63 152.42 112.51 156.77 116.95 160.47C118.06 161.39 119.14 162.32 120.21 163.26C121.24 164.17 122.35 165.05 123.56 165.92C131.37 171.53 140.62 175.97 151.3 179.23C152.43 179.58 152.41 179.69 151.23 179.58C140.19 178.54 129.59 175.13 119.44 169.36C119.06 169.15 118.98 169.23 119.19 169.6C122.66 175.74 127.24 180.56 132.37 185.34C133.82 186.69 135.71 187.27 136.82 188.91C137.02 189.2 137.28 189.41 137.61 189.54C139.34 190.19 140.87 191.09 142.22 192.24C143.15 193.03 144.22 193.47 145.43 193.56C145.6 193.57 145.73 193.65 145.82 193.8L146.06 194.2C146.28 194.56 146.59 194.67 146.98 194.52C147.35 194.38 147.63 194.48 147.82 194.83C148.02 195.22 148.34 195.44 148.77 195.5C149.4 195.58 150.14 195.84 150.99 196.27C152.37 196.97 155.12 197.77 159.24 198.67C159.25 198.67 159.25 198.67 159.25 198.68L159.21 198.94C159.18 199.11 159.09 199.18 158.92 199.17C156.16 199.01 153.43 198.69 150.72 198.2C145.32 197.22 140.12 196.42 134.9 195.24C133.53 194.93 133.35 195.27 134.35 196.26C136.16 198.05 137.93 199.87 139.64 201.72C140.71 202.87 141.85 203.81 143.08 204.54C144.27 205.24 145.28 206.12 146.12 207.17C146.41 207.55 146.8 207.8 147.27 207.91C148.1 208.1 148.73 208.56 149.16 209.29C149.34 209.58 149.59 209.67 149.91 209.55C150.35 209.38 150.69 209.52 150.93 209.97C151.05 210.18 151.23 210.36 151.45 210.47C153.78 211.65 155.98 212.88 158.48 213.68C160.69 214.39 162.84 215.09 164.92 215.77C165.1 215.82 165.21 215.94 165.24 216.12C165.33 216.51 165.2 216.61 164.85 216.4C163.47 215.57 161.7 216.08 160.06 215.86C158.02 215.59 155.97 215.21 153.91 214.71C153.43 214.59 153.32 214.74 153.57 215.16C156.71 220.31 161.81 226.43 167.51 228.5C167.76 228.59 167.95 228.8 168.02 229.06C168.13 229.47 168.37 229.63 168.74 229.54C169.07 229.45 169.4 229.48 169.71 229.63C172.21 230.82 174.94 231.58 177.62 232.16C177.85 232.21 178.01 232.43 177.98 232.66C177.95 232.9 177.75 233.07 177.51 233.06L168.71 232.74C168.26 232.72 167.97 233.22 168.22 233.6C169.97 236.29 171.93 238.81 174.11 241.15C175.15 242.26 176.52 242.56 177.6 243.64C178.25 244.29 179.05 244.85 179.98 245.3C190.73 250.56 201.22 248.2 210.92 241.86C213.67 240.06 216.56 238.05 219.59 235.84C220.49 235.18 220.38 234.89 219.27 234.96C210.78 235.52 202.55 235.38 194.58 234.54C193.73 234.45 193.05 234.83 192.24 234.68C191.67 234.57 191.66 234.45 192.23 234.32C195.1 233.65 198.16 233.08 201.4 232.6C208.02 231.61 214.39 230.11 220.86 228.8C222.89 228.39 222.9 227.93 220.9 227.42C211.27 224.95 201.6 222.18 191.89 219.1C189.43 218.31 186.96 217.42 184.49 216.42C183.39 215.98 183.43 215.8 184.61 215.88C194.88 216.56 205.22 217.56 215.65 218.89C217.24 219.09 217.36 218.76 216 217.91C207.43 212.56 198.86 207.55 190.29 202.9C186.28 200.72 182.61 198.19 178.32 196.53C178.27 196.51 178.26 196.48 178.29 196.44L178.53 196.17C178.6 196.08 178.7 196.06 178.81 196.09C188.18 198.99 197.34 202.76 206.28 207.4C207.91 208.25 208.03 208.07 206.64 206.87C200.11 201.24 193.02 195.05 185.37 188.32C184.73 187.75 184.12 187.17 183.54 186.57ZM202.6 332.77C199.45 337.71 196.63 342.95 193.61 348.02C190.11 353.91 185.99 359.31 182.28 364.86C177.76 371.63 172.64 377.79 167.56 384.2C165.1 387.3 162.36 390.43 159.34 393.59C156.37 396.69 153.55 399.77 150.89 402.82C150.54 403.22 150.62 403.33 151.11 403.15C152.62 402.6 153.4 401.45 154.75 400.66C155.54 400.19 156.29 399.63 157 398.98C172.39 384.97 185.25 368.91 195.58 350.81C198.93 344.94 201.45 339.01 203.16 333.02C203.55 331.65 203.37 331.57 202.6 332.77Z" fill="#193833"/>
<path d="M218.13 170.18C224.87 176.6 230.85 183.64 237.31 190.29C237.38 190.36 237.41 190.44 237.4 190.54C237.4 190.57 237.39 190.6 237.38 190.63C237.35 190.72 237.29 190.74 237.21 190.69C231 187.02 225.61 184.17 221.03 182.14C218.06 180.83 215.26 179.61 212.64 178.5C212.6 178.49 212.58 178.5 212.58 178.54C212.57 178.63 212.61 178.69 212.68 178.74C220.38 183.59 228.26 188.65 236.31 193.91C239.64 196.1 242.77 198.26 245.69 200.4C245.98 200.61 245.95 200.68 245.6 200.61C241.39 199.79 237.12 198.9 232.81 197.94C231.09 197.56 229.5 196.81 228.04 195.69C211.3 182.88 193.43 171.91 173 160.58C170.56 159.23 168.68 157.1 167.37 154.19C167.09 153.57 167.23 153.45 167.79 153.83C170.57 155.72 173.36 157.64 176.4 158.97C182.21 161.52 188.24 163.12 194.49 163.78C194.58 163.79 194.63 163.75 194.64 163.66L194.65 163.65C194.67 163.54 194.62 163.47 194.51 163.44C185.72 161.2 177.69 157.1 170.41 151.13C167.43 148.69 164.25 146.18 161.77 143.26C160.43 141.68 159.2 140.13 158.08 138.6C155.84 135.53 154.3 132.21 153.45 128.62C153.24 127.7 153.58 127.4 154.47 127.71C155.87 128.19 157.37 127.96 158.91 128.34C164 129.61 168.68 131.04 172.93 132.61C177.94 134.47 183.4 136.93 189.33 139.99C218.7 155.18 245.87 174.82 268.72 198.76C270.84 200.99 272.72 203.41 274.68 205.75C276.59 208.02 278.25 210.71 279.67 213.82C279.82 214.15 279.73 214.36 279.38 214.46C273.82 215.96 268.57 218.37 263.64 221.68C262.28 222.59 261.07 223.75 260.01 225.14C259.82 225.39 259.66 225.37 259.52 225.1C258.65 223.48 257.35 222.06 255.63 220.84C255.26 220.58 255.26 220.32 255.64 220.07L259.32 217.65C259.82 217.32 260.01 216.67 259.77 216.12C258.38 212.99 257.04 210.35 255.74 208.2C246.16 192.34 233.66 179.62 218.24 170.04C217.75 169.74 217.72 169.79 218.13 170.18Z" fill="#DBDBDB"/>
<path d="M183.54 186.57C184.12 187.17 184.73 187.75 185.37 188.32C193.02 195.05 200.11 201.24 206.64 206.87C208.03 208.07 207.91 208.25 206.28 207.4C197.34 202.76 188.18 198.99 178.81 196.09C178.7 196.06 178.6 196.08 178.53 196.17L178.29 196.44C178.26 196.48 178.27 196.51 178.32 196.53C182.61 198.19 186.28 200.72 190.29 202.9C198.86 207.55 207.43 212.56 216 217.91C217.36 218.76 217.24 219.09 215.65 218.89C205.22 217.56 194.88 216.56 184.61 215.88C183.43 215.8 183.39 215.98 184.49 216.42C186.96 217.42 189.43 218.31 191.89 219.1C201.6 222.18 211.27 224.95 220.9 227.42C222.9 227.93 222.89 228.39 220.86 228.8C214.39 230.11 208.02 231.61 201.4 232.6C198.16 233.08 195.1 233.65 192.23 234.32C191.66 234.45 191.67 234.57 192.24 234.68C193.05 234.83 193.73 234.45 194.58 234.54C202.55 235.38 210.78 235.52 219.27 234.96C220.38 234.89 220.49 235.18 219.59 235.84C216.56 238.05 213.67 240.06 210.92 241.86C201.22 248.2 190.73 250.56 179.98 245.3C179.05 244.85 178.25 244.29 177.6 243.64C176.52 242.56 175.15 242.26 174.11 241.15C171.93 238.81 169.97 236.29 168.22 233.6C167.97 233.22 168.26 232.72 168.71 232.74L177.51 233.06C177.75 233.07 177.95 232.9 177.98 232.66C178.01 232.43 177.85 232.21 177.62 232.16C174.94 231.58 172.21 230.82 169.71 229.63C169.4 229.48 169.07 229.45 168.74 229.54C168.37 229.63 168.13 229.47 168.02 229.06C167.95 228.8 167.76 228.59 167.51 228.5C161.81 226.43 156.71 220.31 153.57 215.16C153.32 214.74 153.43 214.59 153.91 214.71C155.97 215.21 158.02 215.59 160.06 215.86C161.7 216.08 163.47 215.57 164.85 216.4C165.2 216.61 165.33 216.51 165.24 216.12C165.21 215.94 165.1 215.82 164.92 215.77C162.84 215.09 160.69 214.39 158.48 213.68C155.98 212.88 153.78 211.65 151.45 210.47C151.23 210.36 151.05 210.18 150.93 209.97C150.69 209.52 150.35 209.38 149.91 209.55C149.59 209.67 149.34 209.58 149.16 209.29C148.73 208.56 148.1 208.1 147.27 207.91C146.8 207.8 146.41 207.55 146.12 207.17C145.28 206.12 144.27 205.24 143.08 204.54C141.85 203.81 140.71 202.87 139.64 201.72C137.93 199.87 136.16 198.05 134.35 196.26C133.35 195.27 133.53 194.93 134.9 195.24C140.12 196.42 145.32 197.22 150.72 198.2C153.43 198.69 156.16 199.01 158.92 199.17C159.09 199.18 159.18 199.11 159.21 198.94L159.25 198.68C159.25 198.67 159.25 198.67 159.24 198.67C155.12 197.77 152.37 196.97 150.99 196.27C150.14 195.84 149.4 195.58 148.77 195.5C148.34 195.44 148.02 195.22 147.82 194.83C147.63 194.48 147.35 194.38 146.98 194.52C146.59 194.67 146.28 194.56 146.06 194.2L145.82 193.8C145.73 193.65 145.6 193.57 145.43 193.56C144.22 193.47 143.15 193.03 142.22 192.24C140.87 191.09 139.34 190.19 137.61 189.54C137.28 189.41 137.02 189.2 136.82 188.91C135.71 187.27 133.82 186.69 132.37 185.34C127.24 180.56 122.66 175.74 119.19 169.6C118.98 169.23 119.06 169.15 119.44 169.36C129.59 175.13 140.19 178.54 151.23 179.58C152.41 179.69 152.43 179.58 151.3 179.23C140.62 175.97 131.37 171.53 123.56 165.92C122.35 165.05 121.24 164.17 120.21 163.26C119.14 162.32 118.06 161.39 116.95 160.47C112.51 156.77 108.63 152.42 105.31 147.41C103.59 144.81 102.47 142.07 101.95 139.18C101.88 138.76 102.05 138.56 102.48 138.59C107.23 138.9 110.34 139.24 111.79 139.59C122.93 142.33 134.09 146.43 145.27 151.89C150.61 154.5 156.23 156.59 161.47 159.53C161.85 159.74 161.94 159.92 162.23 160.22C162.4 160.41 162.62 160.49 162.87 160.44C163.38 160.35 163.75 160.54 163.98 160.99C164.17 161.35 164.46 161.52 164.85 161.5C165.28 161.48 165.64 161.64 165.93 161.97C166.17 162.24 166.45 162.46 166.78 162.62C169.29 163.85 171.73 165.11 174.09 166.42C190.37 175.43 205.5 185.13 219.47 195.5C228.62 202.3 237.69 209.8 246.68 217.99C250.61 221.56 254.08 225.43 257.11 229.58C258.62 231.65 259.36 233.9 259.35 236.35C259.35 236.59 259.52 236.8 259.76 236.83L260.09 236.89C260.32 236.92 260.53 236.77 260.57 236.54C261.28 232.22 263.09 228.37 266.73 225.79C269.66 223.72 272.62 222.24 275.59 221.34C278.88 220.35 281.75 219.2 284.2 217.9C289.05 215.34 292.26 210.39 294.68 205.27C295.15 204.28 295.72 203.27 296.41 202.25C297.35 200.83 298.07 199.25 299.18 197.93C305.42 190.51 313.35 185.74 322.92 186.09C327.28 186.25 332.05 187.37 337.24 189.46C339.2 190.25 340.92 191.17 342.41 192.24C342.58 192.36 342.78 192.44 342.99 192.46C343.86 192.55 344.09 193.3 344.84 193.69C355.1 199.09 365.93 199.59 377.32 198.51C379.15 198.34 381.11 198.17 383.19 198.01C402.69 196.54 422.21 195.68 441.75 195.45C442.01 195.45 442.15 195.58 442.16 195.84L442.18 196.11C442.18 196.18 442.15 196.21 442.09 196.22C426.3 197.73 414.67 198.92 407.2 199.79C395.38 201.17 383.56 203.15 371.74 205.72C365.63 207.05 360.13 208.79 355.24 210.96C353.45 211.75 351.29 213.09 348.76 215C346.77 216.5 345.03 218.25 343.56 220.24C341.98 222.38 340.35 224.4 338.67 226.31C334.72 230.78 331.57 233.77 329.22 235.28C325.89 237.41 319.57 239.88 319.46 244.64C319.39 247.53 319.22 250.49 318.95 253.5C318.06 263.4 314.59 274.07 309.2 282.28C302.28 292.82 293.69 300.59 283.42 305.59C275.23 309.58 265.93 311.99 257.48 315.44C243.77 321.03 231.89 329.98 224 342.55C223.51 343.34 223.07 344.21 222.68 345.18C222.55 345.53 222.32 345.81 222 346.01C221.57 346.28 221.39 346.66 221.47 347.16C221.52 347.55 221.37 347.83 221.01 348C220.59 348.19 220.42 348.51 220.49 348.97C220.53 349.24 220.47 349.52 220.32 349.74L219.68 350.7C218.67 352.19 218.21 352.04 218.3 350.24C218.49 346.45 219.39 342.57 221.01 338.58C221.03 338.53 221.02 338.5 220.97 338.49L220.73 338.39C220.56 338.32 220.45 338.37 220.39 338.53C219.83 339.98 219.16 341.39 218.38 342.77C217.66 344.05 217.31 345.49 216.91 346.91C216.17 349.54 215.56 349.51 215.08 346.83C214.52 343.66 214.14 340.34 215.03 337.21C216.17 333.18 217.78 329.41 219.87 325.9C219.98 325.73 219.95 325.58 219.78 325.47L219.54 325.31C219.49 325.28 219.46 325.29 219.43 325.33C218.42 326.77 217.02 327.59 216.18 329.14C214.68 331.89 213.48 334.46 212.57 336.87C211.5 339.7 210.55 342.72 209.7 345.92C209.57 346.38 209.42 346.39 209.24 345.95C207.79 342.44 207.56 338.99 207.68 335.27C207.96 326.32 209.01 316.94 210.82 307.14C210.97 306.37 211.19 305.6 211.48 304.84C211.69 304.31 211.52 304.09 210.96 304.2C210.66 304.25 210.44 304.43 210.31 304.73C208.61 308.54 206.74 312.12 204.71 315.47C204.56 315.71 204.48 315.97 204.47 316.25C204.45 316.63 204.28 316.9 203.95 317.06C203.61 317.23 203.46 317.5 203.51 317.87C203.58 318.45 203.37 318.87 202.86 319.14C202.53 319.33 202.4 319.61 202.48 319.98C202.59 320.49 202.41 320.86 201.94 321.09C201.65 321.24 201.51 321.47 201.53 321.8C201.55 322.14 201.54 322.43 201.39 322.74C198.22 329.05 194.99 335.53 191.68 342.2C191.49 342.59 191.2 342.91 190.83 343.14C190.52 343.33 190.4 343.61 190.48 343.97C190.61 344.51 190.42 344.88 189.91 345.08C189.56 345.22 189.43 345.47 189.5 345.84C189.63 346.47 189.4 346.92 188.82 347.18C188.5 347.33 188.39 347.57 188.48 347.91C188.65 348.52 188.43 348.92 187.83 349.12C187.58 349.2 187.44 349.47 187.51 349.72C187.62 350.14 187.52 350.49 187.21 350.77C186.97 351 186.77 351.26 186.62 351.55C181.87 360.42 176.59 369.06 170.77 377.45C168.36 380.92 165.94 384.07 163.49 386.92C161.68 389.03 159.99 391.07 158.42 393.05C153.62 399.08 147.57 404.48 141.53 409.17C137.8 412.06 133.87 413.69 129.73 414.05C129.25 414.09 128.97 413.54 129.27 413.17C137.68 403 145.02 391.2 151.29 377.78C153.23 373.62 155.11 369.42 156.94 365.19C160.45 357.04 163.9 349.2 167.28 341.67C167.39 341.44 167.44 341.19 167.44 340.93C167.44 340.78 167.47 340.63 167.54 340.5L175.28 324.79C175.45 324.46 175.53 324.12 175.53 323.75C175.54 323.33 175.74 323.04 176.13 322.89C176.43 322.77 176.55 322.55 176.49 322.23C176.37 321.66 176.56 321.22 177.05 320.92C177.42 320.69 177.57 320.36 177.5 319.93C177.45 319.59 177.57 319.32 177.88 319.11C178.11 318.96 178.28 318.76 178.4 318.51C182.97 309.36 187.75 300.8 192.75 292.83C200.1 281.12 208.71 271.43 218.6 263.75C219.84 262.79 221.38 261.84 222.92 261.43C229.75 259.59 237.98 257.57 243.29 253.51C244.34 252.7 245.38 251.72 246.39 250.56C246.43 250.51 246.38 250.45 246.33 250.47C231.2 256.88 215.57 258.59 199.44 255.62C196.81 255.14 194.45 254.15 191.85 253.73C190.08 253.44 190.08 253.2 191.86 252.99C205.91 251.37 218.21 246.91 228.77 239.62C229.58 239.06 230.37 238.45 231.13 237.79C231.86 237.16 232.67 236.62 233.56 236.17C234.36 235.77 234.64 234.78 234.17 234.02C221.39 213.61 204.62 197.66 183.85 186.16C182.82 185.59 182.72 185.72 183.54 186.57ZM328.184 208.593C330.46 209.15 332.78 207.66 333.359 205.264C333.94 202.87 332.57 200.48 330.296 199.927C328.02 199.37 325.7 200.86 325.12 203.256C324.54 205.65 325.91 208.04 328.184 208.593ZM305.17 267.45C304 270.07 302.49 272.68 300.63 275.27C294.39 283.99 285.57 291.67 276.82 297.57C271.07 301.44 264.59 305.48 257.4 309.68C254.72 311.25 254.86 311.56 257.82 310.63C270.85 306.51 283 301.25 292.76 291.45C299.73 284.46 304.39 275.96 306.75 265.96C306.94 265.16 307.48 264.32 307.56 263.63C307.63 262.98 307.5 262.94 307.17 263.51C306.44 264.78 305.78 266.1 305.17 267.45Z" fill="#DBDBDB"/>
<path d="M156.25 501.5C155.49 501.21 154.74 500.88 154 500.51C130.53 488.62 109.43 473.46 90.7002 455.02C90.1102 454.45 89.4902 453.92 88.8202 453.44C87.8102 452.71 87.3702 451.61 86.4802 450.74C83.4702 447.79 80.8602 445.08 78.6502 442.6C62.5702 424.54 49.1301 404.52 38.3301 382.55C37.5401 380.94 37.0501 379.24 36.2701 377.62C33.6001 372.09 31.2202 366.49 29.1302 360.83C16.9702 327.82 11.7202 293.59 13.3902 258.15C14.3702 237.3 17.8702 216.89 23.9002 196.92C33.9802 163.47 50.2002 133.3 72.5602 106.39C76.1302 102.1 79.8202 97.96 83.6302 93.97C84.8902 92.66 86.1002 91.34 87.2502 90.01C88.8902 88.15 90.8302 86.75 92.5702 85.06C106.94 71.19 122.69 59.24 139.82 49.21C176.83 27.54 216.54 15.78 258.97 13.92C284.56 12.79 309.55 15.35 333.94 21.58C370.91 31.03 404.23 47.94 433.92 72.32C451.26 86.55 466.95 103.43 480.98 122.94C484.11 127.29 486.79 131.88 489.74 136.31C490.84 137.96 491.8 139.6 492.63 141.25C493.78 143.57 495.24 145.55 496.46 147.87C500.37 155.36 503.56 161.94 506.05 167.59C520.45 200.33 527.66 234.75 527.67 270.86C527.69 311.43 518.61 349.93 500.43 386.37C492.71 401.84 483.35 416.52 472.35 430.39C448.61 460.32 419.57 483.98 385.22 501.39C382.85 502.59 380.33 503.77 377.68 504.92C375.21 505.99 372.67 507.1 370.04 508.23C353.86 515.19 336.76 520.35 318.73 523.71C274.78 531.91 231.59 529.09 189.17 515.24C185.86 514.16 182.44 512.93 178.9 511.54C172.96 509.2 166.92 506.91 161.24 503.87C160.42 503.43 159.54 503.61 158.93 502.86C158.7 502.57 158.39 502.44 158.02 502.48C157.65 502.52 157.34 502.39 157.09 502.09C156.86 501.82 156.58 501.62 156.25 501.5ZM218.24 170.04C233.66 179.62 246.16 192.34 255.74 208.2C257.04 210.35 258.38 212.99 259.77 216.12C260.01 216.67 259.82 217.32 259.32 217.65L255.64 220.07C255.26 220.32 255.26 220.58 255.63 220.84C257.35 222.06 258.65 223.48 259.52 225.1C259.66 225.37 259.82 225.39 260.01 225.14C261.07 223.75 262.28 222.59 263.64 221.68C268.57 218.37 273.82 215.96 279.38 214.46C279.73 214.36 279.82 214.15 279.67 213.82C278.25 210.71 276.59 208.02 274.68 205.75C272.72 203.41 270.84 200.99 268.72 198.76C245.87 174.82 218.7 155.18 189.33 139.99C183.4 136.93 177.94 134.47 172.93 132.61C168.68 131.04 164 129.61 158.91 128.34C157.37 127.96 155.87 128.19 154.47 127.71C153.58 127.4 153.24 127.7 153.45 128.62C154.3 132.21 155.84 135.53 158.08 138.6C159.2 140.13 160.43 141.68 161.77 143.26C164.25 146.18 167.43 148.69 170.41 151.13C177.69 157.1 185.72 161.2 194.51 163.44C194.62 163.47 194.67 163.54 194.65 163.65L194.64 163.66C194.63 163.75 194.58 163.79 194.49 163.78C188.24 163.12 182.21 161.52 176.4 158.97C173.36 157.64 170.57 155.72 167.79 153.83C167.23 153.45 167.09 153.57 167.37 154.19C168.68 157.1 170.56 159.23 173 160.58C193.43 171.91 211.3 182.88 228.04 195.69C229.5 196.81 231.09 197.56 232.81 197.94C237.12 198.9 241.39 199.79 245.6 200.61C245.95 200.68 245.98 200.61 245.69 200.4C242.77 198.26 239.64 196.1 236.31 193.91C228.26 188.65 220.38 183.59 212.68 178.74C212.61 178.69 212.57 178.63 212.58 178.54C212.58 178.5 212.6 178.49 212.64 178.5C215.26 179.61 218.06 180.83 221.03 182.14C225.61 184.17 231 187.02 237.21 190.69C237.29 190.74 237.35 190.72 237.38 190.63C237.39 190.6 237.4 190.57 237.4 190.54C237.41 190.44 237.38 190.36 237.31 190.29C230.85 183.64 224.87 176.6 218.13 170.18C217.72 169.79 217.75 169.74 218.24 170.04ZM183.54 186.57C182.72 185.72 182.82 185.59 183.85 186.16C204.62 197.66 221.39 213.61 234.17 234.02C234.64 234.78 234.36 235.77 233.56 236.17C232.67 236.62 231.86 237.16 231.13 237.79C230.37 238.45 229.58 239.06 228.77 239.62C218.21 246.91 205.91 251.37 191.86 252.99C190.08 253.2 190.08 253.44 191.85 253.73C194.45 254.15 196.81 255.14 199.44 255.62C215.57 258.59 231.2 256.88 246.33 250.47C246.38 250.45 246.43 250.51 246.39 250.56C245.38 251.72 244.34 252.7 243.29 253.51C237.98 257.57 229.75 259.59 222.92 261.43C221.38 261.84 219.84 262.79 218.6 263.75C208.71 271.43 200.1 281.12 192.75 292.83C187.75 300.8 182.97 309.36 178.4 318.51C178.28 318.76 178.11 318.96 177.88 319.11C177.57 319.32 177.45 319.59 177.5 319.93C177.57 320.36 177.42 320.69 177.05 320.92C176.56 321.22 176.37 321.66 176.49 322.23C176.55 322.55 176.43 322.77 176.13 322.89C175.74 323.04 175.54 323.33 175.53 323.75C175.53 324.12 175.45 324.46 175.28 324.79L167.54 340.5C167.47 340.63 167.44 340.78 167.44 340.93C167.44 341.19 167.39 341.44 167.28 341.67C163.9 349.2 160.45 357.04 156.94 365.19C155.11 369.42 153.23 373.62 151.29 377.78C145.02 391.2 137.68 403 129.27 413.17C128.97 413.54 129.25 414.09 129.73 414.05C133.87 413.69 137.8 412.06 141.53 409.17C147.57 404.48 153.62 399.08 158.42 393.05C159.99 391.07 161.68 389.03 163.49 386.92C165.94 384.07 168.36 380.92 170.77 377.45C176.59 369.06 181.87 360.42 186.62 351.55C186.77 351.26 186.97 351 187.21 350.77C187.52 350.49 187.62 350.14 187.51 349.72C187.44 349.47 187.58 349.2 187.83 349.12C188.43 348.92 188.65 348.52 188.48 347.91C188.39 347.57 188.5 347.33 188.82 347.18C189.4 346.92 189.63 346.47 189.5 345.84C189.43 345.47 189.56 345.22 189.91 345.08C190.42 344.88 190.61 344.51 190.48 343.97C190.4 343.61 190.52 343.33 190.83 343.14C191.2 342.91 191.49 342.59 191.68 342.2C194.99 335.53 198.22 329.05 201.39 322.74C201.54 322.43 201.55 322.14 201.53 321.8C201.51 321.47 201.65 321.24 201.94 321.09C202.41 320.86 202.59 320.49 202.48 319.98C202.4 319.61 202.53 319.33 202.86 319.14C203.37 318.87 203.58 318.45 203.51 317.87C203.46 317.5 203.61 317.23 203.95 317.06C204.28 316.9 204.45 316.63 204.47 316.25C204.48 315.97 204.56 315.71 204.71 315.47C206.74 312.12 208.61 308.54 210.31 304.73C210.44 304.43 210.66 304.25 210.96 304.2C211.52 304.09 211.69 304.31 211.48 304.84C211.19 305.6 210.97 306.37 210.82 307.14C209.01 316.94 207.96 326.32 207.68 335.27C207.56 338.99 207.79 342.44 209.24 345.95C209.42 346.39 209.57 346.38 209.7 345.92C210.55 342.72 211.5 339.7 212.57 336.87C213.48 334.46 214.68 331.89 216.18 329.14C217.02 327.59 218.42 326.77 219.43 325.33C219.46 325.29 219.49 325.28 219.54 325.31L219.78 325.47C219.95 325.58 219.98 325.73 219.87 325.9C217.78 329.41 216.17 333.18 215.03 337.21C214.14 340.34 214.52 343.66 215.08 346.83C215.56 349.51 216.17 349.54 216.91 346.91C217.31 345.49 217.66 344.05 218.38 342.77C219.16 341.39 219.83 339.98 220.39 338.53C220.45 338.37 220.56 338.32 220.73 338.39L220.97 338.49C221.02 338.5 221.03 338.53 221.01 338.58C219.39 342.57 218.49 346.45 218.3 350.24C218.21 352.04 218.67 352.19 219.68 350.7L220.32 349.74C220.47 349.52 220.53 349.24 220.49 348.97C220.42 348.51 220.59 348.19 221.01 348C221.37 347.83 221.52 347.55 221.47 347.16C221.39 346.66 221.57 346.28 222 346.01C222.32 345.81 222.55 345.53 222.68 345.18C223.07 344.21 223.51 343.34 224 342.55C231.89 329.98 243.77 321.03 257.48 315.44C265.93 311.99 275.23 309.58 283.42 305.59C293.69 300.59 302.28 292.82 309.2 282.28C314.59 274.07 318.06 263.4 318.95 253.5C319.22 250.49 319.39 247.53 319.46 244.64C319.57 239.88 325.89 237.41 329.22 235.28C331.57 233.77 334.72 230.78 338.67 226.31C340.35 224.4 341.98 222.38 343.56 220.24C345.03 218.25 346.77 216.5 348.76 215C351.29 213.09 353.45 211.75 355.24 210.96C360.13 208.79 365.63 207.05 371.74 205.72C383.56 203.15 395.38 201.17 407.2 199.79C414.67 198.92 426.3 197.73 442.09 196.22C442.15 196.21 442.18 196.18 442.18 196.11L442.16 195.84C442.15 195.58 442.01 195.45 441.75 195.45C422.21 195.68 402.69 196.54 383.19 198.01C381.11 198.17 379.15 198.34 377.32 198.51C365.93 199.59 355.1 199.09 344.84 193.69C344.09 193.3 343.86 192.55 342.99 192.46C342.78 192.44 342.58 192.36 342.41 192.24C340.92 191.17 339.2 190.25 337.24 189.46C332.05 187.37 327.28 186.25 322.92 186.09C313.35 185.74 305.42 190.51 299.18 197.93C298.07 199.25 297.35 200.83 296.41 202.25C295.72 203.27 295.15 204.28 294.68 205.27C292.26 210.39 289.05 215.34 284.2 217.9C281.75 219.2 278.88 220.35 275.59 221.34C272.62 222.24 269.66 223.72 266.73 225.79C263.09 228.37 261.28 232.22 260.57 236.54C260.53 236.77 260.32 236.92 260.09 236.89L259.76 236.83C259.52 236.8 259.35 236.59 259.35 236.35C259.36 233.9 258.62 231.65 257.11 229.58C254.08 225.43 250.61 221.56 246.68 217.99C237.69 209.8 228.62 202.3 219.47 195.5C205.5 185.13 190.37 175.43 174.09 166.42C171.73 165.11 169.29 163.85 166.78 162.62C166.45 162.46 166.17 162.24 165.93 161.97C165.64 161.64 165.28 161.48 164.85 161.5C164.46 161.52 164.17 161.35 163.98 160.99C163.75 160.54 163.38 160.35 162.87 160.44C162.62 160.49 162.4 160.41 162.23 160.22C161.94 159.92 161.85 159.74 161.47 159.53C156.23 156.59 150.61 154.5 145.27 151.89C134.09 146.43 122.93 142.33 111.79 139.59C110.34 139.24 107.23 138.9 102.48 138.59C102.05 138.56 101.88 138.76 101.95 139.18C102.47 142.07 103.59 144.81 105.31 147.41C108.63 152.42 112.51 156.77 116.95 160.47C118.06 161.39 119.14 162.32 120.21 163.26C121.24 164.17 122.35 165.05 123.56 165.92C131.37 171.53 140.62 175.97 151.3 179.23C152.43 179.58 152.41 179.69 151.23 179.58C140.19 178.54 129.59 175.13 119.44 169.36C119.06 169.15 118.98 169.23 119.19 169.6C122.66 175.74 127.24 180.56 132.37 185.34C133.82 186.69 135.71 187.27 136.82 188.91C137.02 189.2 137.28 189.41 137.61 189.54C139.34 190.19 140.87 191.09 142.22 192.24C143.15 193.03 144.22 193.47 145.43 193.56C145.6 193.57 145.73 193.65 145.82 193.8L146.06 194.2C146.28 194.56 146.59 194.67 146.98 194.52C147.35 194.38 147.63 194.48 147.82 194.83C148.02 195.22 148.34 195.44 148.77 195.5C149.4 195.58 150.14 195.84 150.99 196.27C152.37 196.97 155.12 197.77 159.24 198.67C159.25 198.67 159.25 198.67 159.25 198.68L159.21 198.94C159.18 199.11 159.09 199.18 158.92 199.17C156.16 199.01 153.43 198.69 150.72 198.2C145.32 197.22 140.12 196.42 134.9 195.24C133.53 194.93 133.35 195.27 134.35 196.26C136.16 198.05 137.93 199.87 139.64 201.72C140.71 202.87 141.85 203.81 143.08 204.54C144.27 205.24 145.28 206.12 146.12 207.17C146.41 207.55 146.8 207.8 147.27 207.91C148.1 208.1 148.73 208.56 149.16 209.29C149.34 209.58 149.59 209.67 149.91 209.55C150.35 209.38 150.69 209.52 150.93 209.97C151.05 210.18 151.23 210.36 151.45 210.47C153.78 211.65 155.98 212.88 158.48 213.68C160.69 214.39 162.84 215.09 164.92 215.77C165.1 215.82 165.21 215.94 165.24 216.12C165.33 216.51 165.2 216.61 164.85 216.4C163.47 215.57 161.7 216.08 160.06 215.86C158.02 215.59 155.97 215.21 153.91 214.71C153.43 214.59 153.32 214.74 153.57 215.16C156.71 220.31 161.81 226.43 167.51 228.5C167.76 228.59 167.95 228.8 168.02 229.06C168.13 229.47 168.37 229.63 168.74 229.54C169.07 229.45 169.4 229.48 169.71 229.63C172.21 230.82 174.94 231.58 177.62 232.16C177.85 232.21 178.01 232.43 177.98 232.66C177.95 232.9 177.75 233.07 177.51 233.06L168.71 232.74C168.26 232.72 167.97 233.22 168.22 233.6C169.97 236.29 171.93 238.81 174.11 241.15C175.15 242.26 176.52 242.56 177.6 243.64C178.25 244.29 179.05 244.85 179.98 245.3C190.73 250.56 201.22 248.2 210.92 241.86C213.67 240.06 216.56 238.05 219.59 235.84C220.49 235.18 220.38 234.89 219.27 234.96C210.78 235.52 202.55 235.38 194.58 234.54C193.73 234.45 193.05 234.83 192.24 234.68C191.67 234.57 191.66 234.45 192.23 234.32C195.1 233.65 198.16 233.08 201.4 232.6C208.02 231.61 214.39 230.11 220.86 228.8C222.89 228.39 222.9 227.93 220.9 227.42C211.27 224.95 201.6 222.18 191.89 219.1C189.43 218.31 186.96 217.42 184.49 216.42C183.39 215.98 183.43 215.8 184.61 215.88C194.88 216.56 205.22 217.56 215.65 218.89C217.24 219.09 217.36 218.76 216 217.91C207.43 212.56 198.86 207.55 190.29 202.9C186.28 200.72 182.61 198.19 178.32 196.53C178.27 196.51 178.26 196.48 178.29 196.44L178.53 196.17C178.6 196.08 178.7 196.06 178.81 196.09C188.18 198.99 197.34 202.76 206.28 207.4C207.91 208.25 208.03 208.07 206.64 206.87C200.11 201.24 193.02 195.05 185.37 188.32C184.73 187.75 184.12 187.17 183.54 186.57ZM202.6 332.77C199.45 337.71 196.63 342.95 193.61 348.02C190.11 353.91 185.99 359.31 182.28 364.86C177.76 371.63 172.64 377.79 167.56 384.2C165.1 387.3 162.36 390.43 159.34 393.59C156.37 396.69 153.55 399.77 150.89 402.82C150.54 403.22 150.62 403.33 151.11 403.15C152.62 402.6 153.4 401.45 154.75 400.66C155.54 400.19 156.29 399.63 157 398.98C172.39 384.97 185.25 368.91 195.58 350.81C198.93 344.94 201.45 339.01 203.16 333.02C203.55 331.65 203.37 331.57 202.6 332.77Z" fill="#193833"/>
<path d="M218.13 170.18C224.87 176.6 230.85 183.64 237.31 190.29C237.38 190.36 237.41 190.44 237.4 190.54C237.4 190.57 237.39 190.6 237.38 190.63C237.35 190.72 237.29 190.74 237.21 190.69C231 187.02 225.61 184.17 221.03 182.14C218.06 180.83 215.26 179.61 212.64 178.5C212.6 178.49 212.58 178.5 212.58 178.54C212.57 178.63 212.61 178.69 212.68 178.74C220.38 183.59 228.26 188.65 236.31 193.91C239.64 196.1 242.77 198.26 245.69 200.4C245.98 200.61 245.95 200.68 245.6 200.61C241.39 199.79 237.12 198.9 232.81 197.94C231.09 197.56 229.5 196.81 228.04 195.69C211.3 182.88 193.43 171.91 173 160.58C170.56 159.23 168.68 157.1 167.37 154.19C167.09 153.57 167.23 153.45 167.79 153.83C170.57 155.72 173.36 157.64 176.4 158.97C182.21 161.52 188.24 163.12 194.49 163.78C194.58 163.79 194.63 163.75 194.64 163.66L194.65 163.65C194.67 163.54 194.62 163.47 194.51 163.44C185.72 161.2 177.69 157.1 170.41 151.13C167.43 148.69 164.25 146.18 161.77 143.26C160.43 141.68 159.2 140.13 158.08 138.6C155.84 135.53 154.3 132.21 153.45 128.62C153.24 127.7 153.58 127.4 154.47 127.71C155.87 128.19 157.37 127.96 158.91 128.34C164 129.61 168.68 131.04 172.93 132.61C177.94 134.47 183.4 136.93 189.33 139.99C218.7 155.18 245.87 174.82 268.72 198.76C270.84 200.99 272.72 203.41 274.68 205.75C276.59 208.02 278.25 210.71 279.67 213.82C279.82 214.15 279.73 214.36 279.38 214.46C273.82 215.96 268.57 218.37 263.64 221.68C262.28 222.59 261.07 223.75 260.01 225.14C259.82 225.39 259.66 225.37 259.52 225.1C258.65 223.48 257.35 222.06 255.63 220.84C255.26 220.58 255.26 220.32 255.64 220.07L259.32 217.65C259.82 217.32 260.01 216.67 259.77 216.12C258.38 212.99 257.04 210.35 255.74 208.2C246.16 192.34 233.66 179.62 218.24 170.04C217.75 169.74 217.72 169.79 218.13 170.18Z" fill="#DBDBDB"/>
<path d="M183.54 186.57C184.12 187.17 184.73 187.75 185.37 188.32C193.02 195.05 200.11 201.24 206.64 206.87C208.03 208.07 207.91 208.25 206.28 207.4C197.34 202.76 188.18 198.99 178.81 196.09C178.7 196.06 178.6 196.08 178.53 196.17L178.29 196.44C178.26 196.48 178.27 196.51 178.32 196.53C182.61 198.19 186.28 200.72 190.29 202.9C198.86 207.55 207.43 212.56 216 217.91C217.36 218.76 217.24 219.09 215.65 218.89C205.22 217.56 194.88 216.56 184.61 215.88C183.43 215.8 183.39 215.98 184.49 216.42C186.96 217.42 189.43 218.31 191.89 219.1C201.6 222.18 211.27 224.95 220.9 227.42C222.9 227.93 222.89 228.39 220.86 228.8C214.39 230.11 208.02 231.61 201.4 232.6C198.16 233.08 195.1 233.65 192.23 234.32C191.66 234.45 191.67 234.57 192.24 234.68C193.05 234.83 193.73 234.45 194.58 234.54C202.55 235.38 210.78 235.52 219.27 234.96C220.38 234.89 220.49 235.18 219.59 235.84C216.56 238.05 213.67 240.06 210.92 241.86C201.22 248.2 190.73 250.56 179.98 245.3C179.05 244.85 178.25 244.29 177.6 243.64C176.52 242.56 175.15 242.26 174.11 241.15C171.93 238.81 169.97 236.29 168.22 233.6C167.97 233.22 168.26 232.72 168.71 232.74L177.51 233.06C177.75 233.07 177.95 232.9 177.98 232.66C178.01 232.43 177.85 232.21 177.62 232.16C174.94 231.58 172.21 230.82 169.71 229.63C169.4 229.48 169.07 229.45 168.74 229.54C168.37 229.63 168.13 229.47 168.02 229.06C167.95 228.8 167.76 228.59 167.51 228.5C161.81 226.43 156.71 220.31 153.57 215.16C153.32 214.74 153.43 214.59 153.91 214.71C155.97 215.21 158.02 215.59 160.06 215.86C161.7 216.08 163.47 215.57 164.85 216.4C165.2 216.61 165.33 216.51 165.24 216.12C165.21 215.94 165.1 215.82 164.92 215.77C162.84 215.09 160.69 214.39 158.48 213.68C155.98 212.88 153.78 211.65 151.45 210.47C151.23 210.36 151.05 210.18 150.93 209.97C150.69 209.52 150.35 209.38 149.91 209.55C149.59 209.67 149.34 209.58 149.16 209.29C148.73 208.56 148.1 208.1 147.27 207.91C146.8 207.8 146.41 207.55 146.12 207.17C145.28 206.12 144.27 205.24 143.08 204.54C141.85 203.81 140.71 202.87 139.64 201.72C137.93 199.87 136.16 198.05 134.35 196.26C133.35 195.27 133.53 194.93 134.9 195.24C140.12 196.42 145.32 197.22 150.72 198.2C153.43 198.69 156.16 199.01 158.92 199.17C159.09 199.18 159.18 199.11 159.21 198.94L159.25 198.68C159.25 198.67 159.25 198.67 159.24 198.67C155.12 197.77 152.37 196.97 150.99 196.27C150.14 195.84 149.4 195.58 148.77 195.5C148.34 195.44 148.02 195.22 147.82 194.83C147.63 194.48 147.35 194.38 146.98 194.52C146.59 194.67 146.28 194.56 146.06 194.2L145.82 193.8C145.73 193.65 145.6 193.57 145.43 193.56C144.22 193.47 143.15 193.03 142.22 192.24C140.87 191.09 139.34 190.19 137.61 189.54C137.28 189.41 137.02 189.2 136.82 188.91C135.71 187.27 133.82 186.69 132.37 185.34C127.24 180.56 122.66 175.74 119.19 169.6C118.98 169.23 119.06 169.15 119.44 169.36C129.59 175.13 140.19 178.54 151.23 179.58C152.41 179.69 152.43 179.58 151.3 179.23C140.62 175.97 131.37 171.53 123.56 165.92C122.35 165.05 121.24 164.17 120.21 163.26C119.14 162.32 118.06 161.39 116.95 160.47C112.51 156.77 108.63 152.42 105.31 147.41C103.59 144.81 102.47 142.07 101.95 139.18C101.88 138.76 102.05 138.56 102.48 138.59C107.23 138.9 110.34 139.24 111.79 139.59C122.93 142.33 134.09 146.43 145.27 151.89C150.61 154.5 156.23 156.59 161.47 159.53C161.85 159.74 161.94 159.92 162.23 160.22C162.4 160.41 162.62 160.49 162.87 160.44C163.38 160.35 163.75 160.54 163.98 160.99C164.17 161.35 164.46 161.52 164.85 161.5C165.28 161.48 165.64 161.64 165.93 161.97C166.17 162.24 166.45 162.46 166.78 162.62C169.29 163.85 171.73 165.11 174.09 166.42C190.37 175.43 205.5 185.13 219.47 195.5C228.62 202.3 237.69 209.8 246.68 217.99C250.61 221.56 254.08 225.43 257.11 229.58C258.62 231.65 259.36 233.9 259.35 236.35C259.35 236.59 259.52 236.8 259.76 236.83L260.09 236.89C260.32 236.92 260.53 236.77 260.57 236.54C261.28 232.22 263.09 228.37 266.73 225.79C269.66 223.72 272.62 222.24 275.59 221.34C278.88 220.35 281.75 219.2 284.2 217.9C289.05 215.34 292.26 210.39 294.68 205.27C295.15 204.28 295.72 203.27 296.41 202.25C297.35 200.83 298.07 199.25 299.18 197.93C305.42 190.51 313.35 185.74 322.92 186.09C327.28 186.25 332.05 187.37 337.24 189.46C339.2 190.25 340.92 191.17 342.41 192.24C342.58 192.36 342.78 192.44 342.99 192.46C343.86 192.55 344.09 193.3 344.84 193.69C355.1 199.09 365.93 199.59 377.32 198.51C379.15 198.34 381.11 198.17 383.19 198.01C402.69 196.54 422.21 195.68 441.75 195.45C442.01 195.45 442.15 195.58 442.16 195.84L442.18 196.11C442.18 196.18 442.15 196.21 442.09 196.22C426.3 197.73 414.67 198.92 407.2 199.79C395.38 201.17 383.56 203.15 371.74 205.72C365.63 207.05 360.13 208.79 355.24 210.96C353.45 211.75 351.29 213.09 348.76 215C346.77 216.5 345.03 218.25 343.56 220.24C341.98 222.38 340.35 224.4 338.67 226.31C334.72 230.78 331.57 233.77 329.22 235.28C325.89 237.41 319.57 239.88 319.46 244.64C319.39 247.53 319.22 250.49 318.95 253.5C318.06 263.4 314.59 274.07 309.2 282.28C302.28 292.82 293.69 300.59 283.42 305.59C275.23 309.58 265.93 311.99 257.48 315.44C243.77 321.03 231.89 329.98 224 342.55C223.51 343.34 223.07 344.21 222.68 345.18C222.55 345.53 222.32 345.81 222 346.01C221.57 346.28 221.39 346.66 221.47 347.16C221.52 347.55 221.37 347.83 221.01 348C220.59 348.19 220.42 348.51 220.49 348.97C220.53 349.24 220.47 349.52 220.32 349.74L219.68 350.7C218.67 352.19 218.21 352.04 218.3 350.24C218.49 346.45 219.39 342.57 221.01 338.58C221.03 338.53 221.02 338.5 220.97 338.49L220.73 338.39C220.56 338.32 220.45 338.37 220.39 338.53C219.83 339.98 219.16 341.39 218.38 342.77C217.66 344.05 217.31 345.49 216.91 346.91C216.17 349.54 215.56 349.51 215.08 346.83C214.52 343.66 214.14 340.34 215.03 337.21C216.17 333.18 217.78 329.41 219.87 325.9C219.98 325.73 219.95 325.58 219.78 325.47L219.54 325.31C219.49 325.28 219.46 325.29 219.43 325.33C218.42 326.77 217.02 327.59 216.18 329.14C214.68 331.89 213.48 334.46 212.57 336.87C211.5 339.7 210.55 342.72 209.7 345.92C209.57 346.38 209.42 346.39 209.24 345.95C207.79 342.44 207.56 338.99 207.68 335.27C207.96 326.32 209.01 316.94 210.82 307.14C210.97 306.37 211.19 305.6 211.48 304.84C211.69 304.31 211.52 304.09 210.96 304.2C210.66 304.25 210.44 304.43 210.31 304.73C208.61 308.54 206.74 312.12 204.71 315.47C204.56 315.71 204.48 315.97 204.47 316.25C204.45 316.63 204.28 316.9 203.95 317.06C203.61 317.23 203.46 317.5 203.51 317.87C203.58 318.45 203.37 318.87 202.86 319.14C202.53 319.33 202.4 319.61 202.48 319.98C202.59 320.49 202.41 320.86 201.94 321.09C201.65 321.24 201.51 321.47 201.53 321.8C201.55 322.14 201.54 322.43 201.39 322.74C198.22 329.05 194.99 335.53 191.68 342.2C191.49 342.59 191.2 342.91 190.83 343.14C190.52 343.33 190.4 343.61 190.48 343.97C190.61 344.51 190.42 344.88 189.91 345.08C189.56 345.22 189.43 345.47 189.5 345.84C189.63 346.47 189.4 346.92 188.82 347.18C188.5 347.33 188.39 347.57 188.48 347.91C188.65 348.52 188.43 348.92 187.83 349.12C187.58 349.2 187.44 349.47 187.51 349.72C187.62 350.14 187.52 350.49 187.21 350.77C186.97 351 186.77 351.26 186.62 351.55C181.87 360.42 176.59 369.06 170.77 377.45C168.36 380.92 165.94 384.07 163.49 386.92C161.68 389.03 159.99 391.07 158.42 393.05C153.62 399.08 147.57 404.48 141.53 409.17C137.8 412.06 133.87 413.69 129.73 414.05C129.25 414.09 128.97 413.54 129.27 413.17C137.68 403 145.02 391.2 151.29 377.78C153.23 373.62 155.11 369.42 156.94 365.19C160.45 357.04 163.9 349.2 167.28 341.67C167.39 341.44 167.44 341.19 167.44 340.93C167.44 340.78 167.47 340.63 167.54 340.5L175.28 324.79C175.45 324.46 175.53 324.12 175.53 323.75C175.54 323.33 175.74 323.04 176.13 322.89C176.43 322.77 176.55 322.55 176.49 322.23C176.37 321.66 176.56 321.22 177.05 320.92C177.42 320.69 177.57 320.36 177.5 319.93C177.45 319.59 177.57 319.32 177.88 319.11C178.11 318.96 178.28 318.76 178.4 318.51C182.97 309.36 187.75 300.8 192.75 292.83C200.1 281.12 208.71 271.43 218.6 263.75C219.84 262.79 221.38 261.84 222.92 261.43C229.75 259.59 237.98 257.57 243.29 253.51C244.34 252.7 245.38 251.72 246.39 250.56C246.43 250.51 246.38 250.45 246.33 250.47C231.2 256.88 215.57 258.59 199.44 255.62C196.81 255.14 194.45 254.15 191.85 253.73C190.08 253.44 190.08 253.2 191.86 252.99C205.91 251.37 218.21 246.91 228.77 239.62C229.58 239.06 230.37 238.45 231.13 237.79C231.86 237.16 232.67 236.62 233.56 236.17C234.36 235.77 234.64 234.78 234.17 234.02C221.39 213.61 204.62 197.66 183.85 186.16C182.82 185.59 182.72 185.72 183.54 186.57ZM328.184 208.593C330.46 209.15 332.78 207.66 333.359 205.264C333.94 202.87 332.57 200.48 330.296 199.927C328.02 199.37 325.7 200.86 325.12 203.256C324.54 205.65 325.91 208.04 328.184 208.593ZM305.17 267.45C304 270.07 302.49 272.68 300.63 275.27C294.39 283.99 285.57 291.67 276.82 297.57C271.07 301.44 264.59 305.48 257.4 309.68C254.72 311.25 254.86 311.56 257.82 310.63C270.85 306.51 283 301.25 292.76 291.45C299.73 284.46 304.39 275.96 306.75 265.96C306.94 265.16 307.48 264.32 307.56 263.63C307.63 262.98 307.5 262.94 307.17 263.51C306.44 264.78 305.78 266.1 305.17 267.45Z" fill="#DBDBDB"/>
<path d="M325.12 203.256C324.537 205.649 325.908 208.039 328.184 208.593C330.459 209.148 332.776 207.657 333.359 205.264C333.943 202.871 332.571 200.482 330.296 199.927C328.021 199.372 325.704 200.863 325.12 203.256Z" fill="#193833"/>
<path d="M305.17 267.45C305.78 266.1 306.44 264.78 307.17 263.51C307.5 262.94 307.63 262.98 307.56 263.63C307.48 264.32 306.94 265.16 306.75 265.96C304.39 275.96 299.73 284.46 292.76 291.45C283 301.25 270.85 306.51 257.82 310.63C254.86 311.56 254.72 311.25 257.4 309.68C264.59 305.48 271.07 301.44 276.82 297.57C285.57 291.67 294.39 283.99 300.63 275.27C302.49 272.68 304 270.07 305.17 267.45Z" fill="#193833"/>
<path d="M193.61 348.02C196.63 342.95 199.45 337.71 202.6 332.77C203.37 331.57 203.55 331.65 203.16 333.02C201.45 339.01 198.93 344.94 195.58 350.81C185.25 368.91 172.39 384.97 157 398.98C156.29 399.63 155.54 400.19 154.75 400.66C153.4 401.45 152.62 402.6 151.11 403.15C150.62 403.33 150.54 403.22 150.89 402.82C153.55 399.77 156.37 396.69 159.34 393.59C162.36 390.43 165.1 387.3 167.56 384.2C172.64 377.79 177.76 371.63 182.28 364.86C185.99 359.31 190.11 353.91 193.61 348.02Z" fill="#DBDBDB"/>
</svg>
