<svg width="341" height="276" viewBox="0 0 341 276" fill="none" xmlns="http://www.w3.org/2000/svg">
<rect width="341" height="276" stroke="transparent" stroke-width="1" fill="rgb(34, 197, 94)" fill-opacity="0" />
<g style="mix-blend-mode:hard-light">
<path d="M81.6052 47.9829C82.1852 48.5829 82.7952 49.1629 83.4352 49.7329C91.0852 56.4629 98.1753 62.6529 104.705 68.2829C106.095 69.4829 105.975 69.6629 104.345 68.8129C95.4053 64.1729 86.2452 60.4029 76.8752 57.5029C76.7652 57.4729 76.6652 57.493 76.5952 57.583L76.3552 57.8529C76.3252 57.8929 76.3352 57.9229 76.3852 57.9429C80.6752 59.6029 84.3452 62.1329 88.3552 64.3129C96.9252 68.9629 105.495 73.9729 114.065 79.3229C115.425 80.1729 115.305 80.503 113.715 80.303C103.285 78.973 92.9452 77.9729 82.6752 77.2929C81.4952 77.2129 81.4552 77.393 82.5552 77.833C85.0252 78.833 87.4953 79.7229 89.9553 80.5129C99.6653 83.5929 109.335 86.363 118.965 88.833C120.965 89.343 120.955 89.8029 118.925 90.2129C112.455 91.5229 106.085 93.0229 99.4653 94.0129C96.2253 94.4929 93.1652 95.0629 90.2952 95.7329C89.7252 95.8629 89.7352 95.9829 90.3052 96.0929C91.1152 96.2429 91.7953 95.8629 92.6453 95.9529C100.615 96.7929 108.845 96.9329 117.335 96.3729C118.445 96.3029 118.555 96.5929 117.655 97.2529C114.625 99.4629 111.735 101.473 108.985 103.273C99.2852 109.613 88.7952 111.973 78.0452 106.713C77.1152 106.263 76.3152 105.703 75.6652 105.053C74.5852 103.973 73.2152 103.673 72.1752 102.563C69.9952 100.223 68.0352 97.7029 66.2852 95.0129C66.0352 94.6329 66.3252 94.1329 66.7752 94.1529L75.5752 94.4729C75.8152 94.4829 76.0152 94.3129 76.0452 94.0729C76.0752 93.8429 75.9152 93.6229 75.6852 93.5729C73.0052 92.9929 70.2752 92.2329 67.7752 91.0429C67.4652 90.8929 67.1352 90.8629 66.8052 90.9529C66.4352 91.0429 66.1952 90.8829 66.0852 90.4729C66.0152 90.2129 65.8252 90.0029 65.5752 89.9129C59.8752 87.8429 54.7752 81.7229 51.6352 76.5729C51.3852 76.1529 51.4952 76.0029 51.9752 76.1229C54.0352 76.6229 56.0852 77.0029 58.1252 77.2729C59.7652 77.4929 61.5352 76.9829 62.9152 77.8129C63.2652 78.0229 63.3952 77.9229 63.3052 77.5329C63.2752 77.3529 63.1653 77.2329 62.9853 77.1829C60.9053 76.5029 58.7552 75.8029 56.5452 75.0929C54.0452 74.2929 51.8453 73.0629 49.5153 71.8829C49.2953 71.7729 49.1152 71.5929 48.9952 71.3829C48.7552 70.9329 48.4152 70.7929 47.9752 70.9629C47.6552 71.0829 47.4052 70.9929 47.2252 70.7029C46.7952 69.9729 46.1652 69.5129 45.3352 69.3229C44.8652 69.2129 44.4752 68.963 44.1852 68.583C43.3452 67.533 42.3352 66.6529 41.1452 65.9529C39.9152 65.2229 38.7753 64.2829 37.7053 63.1329C35.9953 61.2829 34.2252 59.463 32.4152 57.673C31.4152 56.683 31.5952 56.3429 32.9652 56.6529C38.1852 57.8329 43.3852 58.633 48.7852 59.613C51.4952 60.103 54.2253 60.423 56.9853 60.583C57.1553 60.593 57.2452 60.5229 57.2752 60.3529L57.3152 60.0929C57.3152 60.0829 57.3152 60.083 57.3052 60.083C53.1852 59.183 50.4352 58.3829 49.0552 57.6829C48.2052 57.2529 47.4652 56.9929 46.8352 56.9129C46.4052 56.8529 46.0852 56.6329 45.8852 56.2429C45.6952 55.8929 45.4152 55.7929 45.0452 55.9329C44.6552 56.0829 44.3452 55.973 44.1252 55.613L43.8852 55.2129C43.7952 55.0629 43.6652 54.9829 43.4952 54.9729C42.2852 54.8829 41.2152 54.4429 40.2852 53.6529C38.9352 52.5029 37.4052 51.6029 35.6752 50.9529C35.3452 50.8229 35.0852 50.6129 34.8852 50.3229C33.7752 48.6829 31.8852 48.1029 30.4352 46.7529C25.3052 41.9729 20.7252 37.1529 17.2552 31.0129C17.0452 30.6429 17.1252 30.5629 17.5052 30.7729C27.6552 36.5429 38.2552 39.9529 49.2952 40.9929C50.4752 41.1029 50.4952 40.993 49.3652 40.643C38.6852 37.383 29.4352 32.943 21.6252 27.333C20.4152 26.463 19.3052 25.583 18.2752 24.673C17.2052 23.733 16.1253 22.8029 15.0153 21.8829C10.5753 18.1829 6.69524 13.8329 3.37524 8.82294C1.65524 6.22294 0.535251 3.48293 0.0152511 0.592934C-0.0547489 0.172934 0.11525 -0.0270624 0.54525 0.00293761C5.29525 0.312938 8.40525 0.652938 9.85525 1.00294C20.9952 3.74294 32.1552 7.84296 43.3352 13.303C48.6752 15.913 54.2952 18.0029 59.5352 20.9429C59.9152 21.1529 60.0052 21.3329 60.2952 21.6329C60.4652 21.8229 60.6852 21.9029 60.9352 21.8529C61.4452 21.7629 61.8152 21.9529 62.0452 22.4029C62.2352 22.7629 62.5252 22.9329 62.9152 22.9129C63.3452 22.8929 63.7052 23.0529 63.9952 23.3829C64.2352 23.6529 64.5152 23.8729 64.8452 24.0329C67.3552 25.2629 69.7952 26.523 72.1552 27.833C88.4352 36.843 103.565 46.5429 117.535 56.9129C126.685 63.7129 135.755 71.2129 144.745 79.4029C148.675 82.9729 152.145 86.8429 155.175 90.9929C156.685 93.0629 157.425 95.3129 157.415 97.7629C157.415 98.0029 157.585 98.2129 157.825 98.2429L158.155 98.303C158.385 98.333 158.595 98.1829 158.635 97.9529C159.345 93.6329 161.155 89.7829 164.795 87.2029C167.725 85.1329 170.685 83.6529 173.655 82.7529C176.945 81.7629 179.815 80.6129 182.265 79.3129C187.115 76.7529 190.325 71.8029 192.745 66.6829C193.215 65.6929 193.785 64.6829 194.475 63.6629C195.415 62.2429 196.135 60.6629 197.245 59.3429C203.485 51.9229 211.415 47.1529 220.985 47.5029C225.345 47.6629 230.115 48.7829 235.305 50.8729C237.265 51.6629 238.985 52.5829 240.475 53.6529C240.645 53.7729 240.845 53.8529 241.055 53.8729C241.925 53.9629 242.155 54.7129 242.905 55.1029C253.165 60.5029 263.995 61.003 275.385 59.923C277.215 59.753 279.175 59.583 281.255 59.423C300.755 57.953 320.275 57.093 339.815 56.863C340.075 56.863 340.215 56.9929 340.225 57.2529L340.245 57.5229C340.245 57.5929 340.215 57.6229 340.155 57.6329C324.365 59.1429 312.735 60.3329 305.265 61.2029C293.445 62.5829 281.625 64.5629 269.805 67.1329C263.695 68.4629 258.195 70.2029 253.305 72.3729C251.515 73.1629 249.355 74.5029 246.825 76.4129C244.835 77.9129 243.095 79.6629 241.625 81.6529C240.045 83.7929 238.415 85.8129 236.735 87.7229C232.785 92.1929 229.635 95.1829 227.285 96.6929C223.955 98.8229 217.635 101.293 217.525 106.053C217.455 108.943 217.285 111.903 217.015 114.913C216.125 124.813 212.655 135.483 207.265 143.693C200.345 154.233 191.755 162.003 181.485 167.003C173.295 170.993 163.995 173.403 155.545 176.853C141.835 182.443 129.955 191.393 122.065 203.963C121.575 204.753 121.135 205.623 120.745 206.593C120.615 206.943 120.385 207.223 120.065 207.423C119.635 207.693 119.455 208.073 119.535 208.573C119.585 208.963 119.435 209.243 119.075 209.413C118.655 209.603 118.485 209.923 118.555 210.383C118.595 210.653 118.535 210.933 118.385 211.153L117.745 212.113C116.735 213.603 116.275 213.453 116.365 211.653C116.555 207.863 117.455 203.983 119.075 199.993C119.095 199.943 119.085 199.913 119.035 199.903L118.795 199.803C118.625 199.733 118.515 199.783 118.455 199.943C117.895 201.393 117.225 202.803 116.445 204.183C115.725 205.463 115.375 206.903 114.975 208.323C114.235 210.953 113.625 210.923 113.145 208.243C112.585 205.073 112.205 201.753 113.095 198.623C114.235 194.593 115.845 190.823 117.935 187.313C118.045 187.143 118.015 186.993 117.845 186.883L117.605 186.723C117.555 186.693 117.525 186.703 117.495 186.743C116.485 188.183 115.085 189.003 114.245 190.553C112.745 193.303 111.545 195.873 110.635 198.283C109.565 201.113 108.615 204.133 107.765 207.333C107.635 207.793 107.485 207.803 107.305 207.363C105.855 203.853 105.625 200.403 105.745 196.683C106.025 187.733 107.075 178.353 108.885 168.553C109.035 167.783 109.255 167.013 109.545 166.253C109.755 165.723 109.585 165.503 109.025 165.613C108.725 165.663 108.505 165.843 108.375 166.143C106.675 169.953 104.805 173.533 102.775 176.883C102.625 177.123 102.545 177.383 102.535 177.663C102.515 178.043 102.345 178.313 102.015 178.473C101.675 178.643 101.525 178.913 101.575 179.283C101.645 179.863 101.435 180.283 100.925 180.553C100.595 180.743 100.465 181.023 100.545 181.393C100.655 181.903 100.475 182.273 100.005 182.503C99.7152 182.653 99.5753 182.883 99.5953 183.213C99.6153 183.553 99.6053 183.843 99.4553 184.153C96.2853 190.463 93.0552 196.943 89.7452 203.613C89.5552 204.003 89.2653 204.323 88.8953 204.553C88.5853 204.743 88.4652 205.023 88.5452 205.383C88.6752 205.923 88.4852 206.293 87.9752 206.493C87.6252 206.633 87.4952 206.883 87.5652 207.253C87.6952 207.883 87.4652 208.333 86.8852 208.593C86.5652 208.743 86.4552 208.983 86.5452 209.323C86.7152 209.933 86.4952 210.333 85.8952 210.533C85.6452 210.613 85.5052 210.883 85.5752 211.133C85.6852 211.553 85.5852 211.903 85.2752 212.183C85.0352 212.413 84.8352 212.673 84.6852 212.963C79.9352 221.833 74.6552 230.473 68.8352 238.863C66.4252 242.333 64.0052 245.483 61.5552 248.333C59.7452 250.443 58.0553 252.483 56.4853 254.463C51.6853 260.493 45.6352 265.893 39.5952 270.583C35.8652 273.473 31.9352 275.103 27.7952 275.463C27.3152 275.503 27.0352 274.953 27.3352 274.583C35.7452 264.413 43.0852 252.613 49.3552 239.193C51.2952 235.033 53.1752 230.833 55.0052 226.603C58.5152 218.453 61.9652 210.613 65.3452 203.083C65.4552 202.853 65.5052 202.603 65.5052 202.343C65.5052 202.193 65.5352 202.043 65.6052 201.913L73.3452 186.203C73.5152 185.873 73.5952 185.533 73.5952 185.163C73.6052 184.743 73.8052 184.453 74.1952 184.303C74.4952 184.183 74.6152 183.963 74.5552 183.643C74.4352 183.073 74.6252 182.633 75.1152 182.333C75.4852 182.103 75.6352 181.773 75.5652 181.343C75.5152 181.003 75.6352 180.733 75.9452 180.523C76.1752 180.373 76.3452 180.173 76.4652 179.923C81.0352 170.773 85.8152 162.213 90.8152 154.243C98.1652 142.533 106.775 132.843 116.665 125.163C117.905 124.203 119.445 123.253 120.985 122.843C127.815 121.003 136.045 118.983 141.355 114.923C142.405 114.113 143.445 113.133 144.455 111.973C144.495 111.923 144.445 111.863 144.395 111.883C129.265 118.293 113.635 120.003 97.5052 117.033C94.8752 116.553 92.5152 115.563 89.9152 115.143C88.1452 114.853 88.1452 114.613 89.9252 114.403C103.975 112.783 116.275 108.323 126.835 101.033C127.645 100.473 128.435 99.8629 129.195 99.2029C129.925 98.5729 130.735 98.033 131.625 97.583C132.425 97.183 132.705 96.1929 132.235 95.4329C119.455 75.0229 102.685 59.0729 81.9152 47.5729C80.8852 47.0029 80.7852 47.1329 81.6052 47.9829ZM226.249 70.0061C228.525 70.563 230.845 69.0729 231.425 66.6771C232.005 64.2829 230.635 61.893 228.362 61.3399C226.085 60.783 223.765 62.2729 223.186 64.6687C222.605 67.0629 223.975 69.453 226.249 70.0061ZM203.235 128.863C202.065 131.483 200.555 134.093 198.695 136.683C192.455 145.403 183.635 153.083 174.885 158.983C169.135 162.853 162.655 166.893 155.465 171.093C152.785 172.663 152.925 172.973 155.885 172.043C168.915 167.923 181.065 162.663 190.825 152.863C197.795 145.873 202.455 137.373 204.815 127.373C205.005 126.573 205.545 125.733 205.625 125.043C205.695 124.393 205.565 124.353 205.235 124.923C204.505 126.193 203.845 127.513 203.235 128.863Z" fill="url(#paint0_linear_1_126)"/>
</g>
<defs>
<linearGradient id="paint0_linear_1_126" x1="170.123" y1="0" x2="170.123" y2="275.465" gradientUnits="userSpaceOnUse">
<stop stop-color="#22C55E"/>
<stop offset="0.9999" stop-color="#655D73" stop-opacity="0.703125"/>
<stop offset="1" stop-color="white" stop-opacity="0"/>
</linearGradient>
</defs>
</svg>
